# xmcd
#
# Track frame offsets:
#	150
#	13915
#	33334
#	46124
#	61885
#	79845
#	93237
#	108999
#	125257
#	139582
#	155790
#	173348
#	187831
#	198815
#	217377
#	235755
#	256385
#	273486
#	285970
#	299316
#
# Disc length: 4193 seconds
#
# Revision: 0
# Processed by: cddbd v1.5.2PL0 Copyright (c) Steve Scherf et al.
# Submitted via: EasyCDDAExtractor 12.0.1.1
#
DISCID=12105f14
DTITLE=Joan Baptista Humet - Sus discos para Movieplay (1975-1978)
DYEAR=2006
DGENRE=
TTITLE0=Despiértame al amanecer
TTITLE1=Cosas de allá
TTITLE2=Miradla
TTITLE3=Tan viejo
TTITLE4=Layetana abajo
TTITLE5=Su majestad
TTITLE6=Que no soy yo
TTITLE7=Madreselva
TTITLE8=No cantes
TTITLE9=Sin escucharte, Carmencina
TTITLE10=Un barrio
TTITLE11=Sin futuro
TTITLE12=Lua d'as encobras
TTITLE13=Mala suerte
TTITLE14=Regresarás
TTITLE15=Compañero
TTITLE16=A contraluz
TTITLE17=Terciopelo
TTITLE18=A ese niño
TTITLE19=Sin motivo
EXTD=
EXTT0=
EXTT1=
EXTT2=
EXTT3=
EXTT4=
EXTT5=
EXTT6=
EXTT7=
EXTT8=
EXTT9=
EXTT10=
EXTT11=
EXTT12=
EXTT13=
EXTT14=
EXTT15=
EXTT16=
EXTT17=
EXTT18=
EXTT19=
PLAYORDER=
